PathFileType	4	(X/Y/Z)	24_2_45_p1_0-355.trc
DataRate	CameraRate	NumFrames	NumMarkers	Units	OrigDataRate	OrigDataStartFrame	OrigNumFrames
59.0	59.0	5	27	m	59.0	44	356
Frame#	Time	RHip			RKnee			RAnkle			RBigToe			RSmallToe			RHeel			LHip			LKnee			LAnkle			LBigToe			LSmallToe			LHeel			Neck			Head			Nose			RShoulder			RElbow			RWrist			RThumb			RIndex			RPinky			LShoulder			LElbow			LWrist			LThumb			LIndex			LPinky			
		X1	Y1	Z1	X2	Y2	Z2	X3	Y3	Z3	X4	Y4	Z4	X5	Y5	Z5	X6	Y6	Z6	X7	Y7	Z7	X8	Y8	Z8	X9	Y9	Z9	X10	Y10	Z10	X11	Y11	Z11	X12	Y12	Z12	X13	Y13	Z13	X14	Y14	Z14	X15	Y15	Z15	X16	Y16	Z16	X17	Y17	Z17	X18	Y18	Z18	X19	Y19	Z19	X20	Y20	Z20	X21	Y21	Z21	X22	Y22	Z22	X23	Y23	Z23	X24	Y24	Z24	X25	Y25	Z25	X26	Y26	Z26	X27	Y27	Z27	
44	0.7457627118644068	0.45033517125102346	0.47674897736295774	0.7676254436595776	0.4468517037648991	0.6077861370123612	1.2334933209529813	0.43756727869366063	0.69258046747076	1.6950761302050004	0.4082905797809015	0.5610052965305004	1.732285654869142	0.47160436930783456	0.5327304851109737	1.6996074729811061	0.4188532899239125	0.7231040465576875	1.7451690418369865	0.2486395236937169	0.47770239524914504	0.7800120374783787	0.21475318660352374	0.5715324717584618	1.2333273139539962	0.20852560475581378	0.6456816390913259	1.7014801975189644	0.2508862881733472	0.44692291083377483	1.6903794843310573	0.19324953960646585	0.5032788640874835	1.7045454147038506	0.21488217136008353	0.698382463992804	1.7648386043011164	0.3395340193926474	0.41875916848313754	0.27211098247485827	0.3435481835132441	0.321161761724675	0.046191863660381714	0.35033558052969666	0.24921814127564582	0.1696243946600808	0.4816526393126121	0.4442755353850571	0.3375902017316474	0.5317619190144408	0.5584887070259427	0.5975137830836494	0.5431389554614764	0.5921968566527436	0.8306569518140898	0.5187756275775391	0.6276303589170428	0.9526634159220719	0.5293192047100889	0.616420805017716	0.9834154009392824	0.5346949445780899	0.6338392350305776	0.970125618851408	0.17984933585825646	0.4650323881066362	0.36202718366672076	0.10460467144539813	0.5042902478574577	0.6066056856337831	0.12145177604652842	0.4895160835977317	0.8545067056996574	0.15807293436872616	0.5031522781029214	0.9592266041104062	0.11218341015144266	0.5348020494026332	1.0141478223852558	0.09636081103834816	0.5279010843251605	0.9809604096758853
45	0.7627118644067796	0.45040098028098785	0.47636594336137483	0.7675644037031202	0.45059804443756307	0.6076088349166067	1.2290527400624924	0.4375457836948014	0.6925788580011681	1.6951160420129845	0.41356667237741795	0.5465015710615151	1.7247395938091445	0.4717245741680998	0.5329595271569496	1.6999146310919098	0.4188133902758861	0.7227480686045443	1.7452258616340453	0.2486312293914325	0.4776736764517659	0.7799928038645056	0.2143423852041377	0.5690487431242777	1.2280710334963163	0.20790256737401558	0.6472725665795825	1.6979347706230412	0.25103914291077195	0.44702917369634176	1.6904714519710926	0.19765366322193498	0.505813804239425	1.7055799218428558	0.2141493886296546	0.7002736908520416	1.7607629277114347	0.33544109455963333	0.4180855474139349	0.27230660951686037	0.3435489543722429	0.32112330066873174	0.04621366182079831	0.3502240001389164	0.24909340730203436	0.1695627138969924	0.48170179290023396	0.44423485377738814	0.3376291457323829	0.5319337146568901	0.5572681529492728	0.5910832988878678	0.5432517830943192	0.5915317896807553	0.8250380943125163	0.5287749142829123	0.5898286687890475	0.9367345975780371	0.5449032567179316	0.583314953445141	0.9624515043438885	0.5397633322538254	0.6195951889425548	0.9518733467457716	0.1798924041407168	0.46501114013648603	0.362005229591387	0.10456077829541839	0.502293741478149	0.6019518343254252	0.12095402986773486	0.48308709269687145	0.840387598046784	0.15038670952804994	0.5115008991823374	0.9491775080662691	0.10664998484506433	0.5449448541030061	1.005199868938617	0.1000742906071498	0.5221709721140148	0.9617112697349758
46	0.7796610169491526	0.4499641872313273	0.47682730930261474	0.7714512703288835	0.45086396927669076	0.6112898945274797	1.2299243402297806	0.4376188581038848	0.6927797481864121	1.6951060065704155	0.4083386588604407	0.5613277846727229	1.7325089738329684	0.4729759545749067	0.5482614140666495	1.7106533916808913	0.41886114783452416	0.7225134456514802	1.7453682481534754	0.24625577834616963	0.46519726604801903	0.7816574885285217	0.2137836931457235	0.5724686051520811	1.2373539512818315	0.20794243361889142	0.6472105332456223	1.6978529496019046	0.251060398400314	0.446923189981829	1.6904530698895122	0.197631579807788	0.5057709894233247	1.705542377120432	0.2209575745495992	0.6844297310795079	1.7527875546822458	0.33546612609572196	0.4178944672072138	0.2724045598300352	0.34354878219586266	0.32124559896512367	0.0462279892601205	0.3501264992043681	0.24913964293272678	0.16951900940219508	0.4817000587488333	0.4439449620582702	0.3376896830914019	0.5307099104286813	0.5566619463881338	0.5757805606913465	0.5426355512813428	0.5930416425756111	0.8193884592684346	0.5139236979550654	0.6148264554229165	0.9318389032661363	0.5254780166931052	0.6228430548514284	0.9442189347215435	0.5359853583387121	0.6266440971233694	0.9309998514810538	0.1798680847080286	0.46491719539167253	0.36208938821767434	0.10424565148293422	0.5026404980541042	0.6050268227460457	0.12488222076550169	0.48302105688234676	0.8354570004388776	0.13932353666924835	0.5199084979909704	0.9473216051632155	0.10646532342131505	0.5455808518667431	1.0052751724785296	0.09921903812463866	0.5208608672722714	0.9525340560430148
47	0.7966101694915254	0.4499702211409067	0.4772502082695289	0.7635538823187769	0.4500990102909258	0.6086898529910739	1.2247752025906506	0.4375812744412459	0.692867300629793	1.6948713329144298	0.40845918747690463	0.5614725680350964	1.73248277478388	0.46894934436615265	0.562333728596349	1.7142343236681767	0.41872461699261126	0.7225803678852784	1.7452087276355648	0.24646842159316865	0.46547380851513814	0.7744899503315213	0.2142361510768901	0.5691382468352482	1.2277032720189829	0.20785123979726053	0.6475232028125073	1.6980253738900344	0.25109029672349037	0.4473422259318456	1.6907051044637191	0.19784849786131828	0.5057224054267297	1.705561049670295	0.2141177494233572	0.7007373683033105	1.7609071042200595	0.3351652101864761	0.4184761294822065	0.2687470014469199	0.3475453533528378	0.3241893259699236	0.045999216346008356	0.3501016185157407	0.24921963623376867	0.1694569240740303	0.4817481681990193	0.4440455399309796	0.3378196140756154	0.5311026064685824	0.5556662856490064	0.5806718212483634	0.533141708685856	0.6069665085015413	0.8272297602260587	0.5178625516048576	0.5812338953357903	0.9245029114765373	0.5250139132473909	0.622978910938496	0.9443650085474452	0.535015311584778	0.6280680373390236	0.9312487322568697	0.17988298217535184	0.4649098831078437	0.36210766469039596	0.10840191211707216	0.5044124081446244	0.6011898771433998	0.125119880540197	0.4853167380431282	0.8404701913389093	0.1440715304769705	0.5264510559340683	0.9577374419116439	0.11199236652790659	0.5472089761954876	1.0063000041613799	0.09950094415719574	0.5238005163997057	0.962450781469885
48	0.8135593220338984	0.4543791565684718	0.4779687448836495	0.7674009632564629	0.4505762168246627	0.6074827828334916	1.2286577206117746	0.4376223541654454	0.6931422465255096	1.6947866552416146	0.40841502859181733	0.5614923282606402	1.7321940438018197	0.47567389329006343	0.5635254939162423	1.708547762737913	0.4180115507931647	0.7202452488612452	1.7396598969680306	0.24598986813004295	0.4632782088616542	0.7697228001663979	0.21430634621246766	0.5688726891429284	1.2274717882147264	0.2077630549189324	0.6476042453663619	1.6978583383602888	0.2527835386045295	0.4602014653059428	1.6965661142533233	0.19718532467795746	0.5077131263846854	1.701936956213101	0.21510790203444766	0.7005925052479431	1.7551284522258326	0.3355397099467487	0.4179238635158369	0.2722101660926145	0.34748530414821766	0.3240941086598789	0.04596462167815124	0.35009119159103314	0.2490481966149432	0.16941634057096652	0.48185783075756305	0.4459736196626296	0.34481391682256335	0.5328450419143936	0.5542501363034541	0.5875312772601591	0.5316063325518718	0.6109377511575	0.8227034199247608	0.4928318135476513	0.6011806308995048	0.9322207392240746	0.49788347489685914	0.6498150011614455	0.9497347024314418	0.5245688219816745	0.6223201087872168	0.9311383330040816	0.17987175990570034	0.465029931681834	0.36213901755638334	0.1084644145471608	0.5049977149822151	0.6017275673883665	0.11423091705865374	0.4967718203626386	0.8437664284779547	0.1440962645867454	0.5315180603479709	0.9559987697085952	0.10653699065807033	0.5501675996017562	1.0078788400484866	0.10022685533698608	0.5393238320022596	0.9638090359840229
